<svg width="302" height="134" viewBox="0 0 302 134" fill="none" xmlns="http://www.w3.org/2000/svg">
<path d="M243.991 148.466C276.029 148.466 302 120.665 302 86.3718C302 52.078 276.029 24.2775 243.991 24.2775C211.954 24.2775 185.982 52.078 185.982 86.3718C185.982 120.665 211.954 148.466 243.991 148.466Z" fill="url(#paint0_linear_405_14251)"/>
<path d="M144.8 124.189C176.838 124.189 202.809 96.388 202.809 62.0943C202.809 27.8006 176.838 0 144.8 0C112.763 0 86.7915 27.8006 86.7915 62.0943C86.7915 96.388 112.763 124.189 144.8 124.189Z" fill="url(#paint1_linear_405_14251)"/>
<path d="M58.0088 155.002C90.0462 155.002 116.018 127.202 116.018 92.908C116.018 58.6143 90.0462 30.8137 58.0088 30.8137C25.9714 30.8137 0 58.6143 0 92.908C0 127.202 25.9714 155.002 58.0088 155.002Z" fill="url(#paint2_linear_405_14251)"/>
<path d="M51.3637 47.7482C51.3637 47.7482 51.9743 44.6118 55.2381 43.9822C58.5018 43.3526 60.8057 46.0617 64.7827 45.0802C68.7598 44.0987 72.9902 46.0617 72.9054 50.9646C72.8206 55.8674 75.1892 57.9233 78.2353 60.3324C81.2814 62.7414 78.1516 65.6283 77.474 68.854C76.7965 72.0798 82.4411 70.8806 81.7893 75.1408C79.9308 87.2813 48.4336 83.8955 43.4609 80.3897C40.6336 78.3972 38.7729 75.408 40.7597 72.1963C42.7466 68.9847 43.5167 73.6086 42.3603 64.8421C41.9061 61.3974 45.8518 58.8401 46.5484 56.4287C47.2449 54.0173 46.2314 48.2636 51.3637 47.7482Z" fill="#120283"/>
<path d="M77.4343 142.203C76.4736 142.586 75.5062 142.947 74.5321 143.285C61.6767 147.776 48.2598 148.618 48.2598 148.618L46.0854 147.426L41.7668 145.058L24.5581 135.622V114.165C24.5581 114.165 24.6775 97.6388 40.6316 91.1155C41.9038 90.5982 43.2057 90.1658 44.5294 89.8209C46.0253 89.4284 47.5419 89.1297 49.0713 88.9265L71.919 88.8206C71.919 88.8206 73.3701 89.0053 75.5735 89.6608C77.9566 90.3669 80.2636 91.3324 82.4572 92.5418C89.3521 96.356 97.1812 103.931 97.6969 118.721C98.1132 130.617 88.3743 137.845 77.4343 142.203Z" fill="#E8ECF8"/>
<path d="M46.0903 147.426L41.7717 145.058L24.563 135.622V114.165C24.563 114.165 24.6824 97.6388 40.6365 91.1155C41.9087 90.5982 43.2106 90.1658 44.5343 89.8209C44.5343 89.8209 45.4083 131.985 46.0903 147.426Z" fill="#120283"/>
<path d="M77.4339 142.203C76.474 142.586 75.5066 142.947 74.5317 143.285C74.9079 124.207 75.5754 89.6584 75.5754 89.6584C82.5182 91.7168 96.9911 98.4284 97.6987 118.719C98.114 130.617 88.3739 137.845 77.4339 142.203Z" fill="#120283"/>
<path d="M71.9237 88.8182C69.3932 91.0389 66.9409 92.3876 64.6315 93.1231H64.6159C57.0011 95.531 50.9322 91.2166 48.5703 89.1289C48.7411 89.0606 48.9119 88.9912 49.0804 88.9194C49.524 88.7323 49.9519 88.5063 50.3596 88.2438C56.3782 84.352 55.2832 73.6614 55.2832 73.6614H65.9698C65.8496 75.1678 65.8642 76.6828 66.0134 78.1864C66.365 81.9076 67.6687 86.8717 71.9237 88.8182Z" fill="#E8ECF8"/>
<path d="M82.4593 92.5395C80.3055 94.3632 78.0141 95.9987 75.608 97.4295C60.7703 106.158 50.0044 100.19 44.5897 95.4147C41.9989 93.1292 40.6338 91.1156 40.6338 91.1156C41.9056 90.5982 43.2071 90.1659 44.5305 89.821C45.2337 89.635 45.9618 89.4671 46.7149 89.3172C47.2574 89.209 47.8133 89.1121 48.3825 89.0266C48.6114 88.9901 48.8413 88.9583 49.0735 88.9253L71.9212 88.8218C71.9212 88.8218 72.2728 88.8653 72.8945 88.9901C73.2874 89.0689 73.7875 89.1784 74.3802 89.3314C74.7471 89.4247 75.1459 89.535 75.5768 89.6621C77.9595 90.3666 80.2662 91.3309 82.4593 92.5395Z" fill="#E8ECF8"/>
<path d="M75.6073 97.4294C60.7695 106.158 50.0036 100.19 44.5889 95.4146C45.5086 94.2118 46.5233 92.2487 46.7097 89.3148C47.2521 89.2065 47.808 89.1096 48.3773 89.0241C48.0056 90.9189 47.5591 95.9818 52.3822 99.2476C58.4098 103.329 69.198 101.12 71.1659 97.3741C72.6962 94.4566 72.8815 90.5693 72.8893 88.9876C73.2822 89.0665 73.7823 89.1759 74.375 89.3289C74.1216 90.9412 73.7845 94.6955 75.6073 97.4294Z" fill="#120283"/>
<path d="M66.008 78.19C65.3829 79.3186 64.4866 80.1154 63.2174 80.2272C58.238 80.6638 55.4374 75.5056 55.4965 75.0302L55.7544 73.665H65.9656C65.8451 75.1714 65.8593 76.6864 66.008 78.19Z" fill="#120283"/>
<path d="M72.7109 63.8038C72.7109 62.3339 71.7253 61.1406 70.5097 61.1406C69.2942 61.1406 68.3086 62.3339 68.3086 63.8038C68.3086 65.2737 69.2942 67.1238 70.5097 67.1238C71.7253 67.1238 72.7109 65.2749 72.7109 63.8038Z" fill="#E8ECF8"/>
<path d="M69.9315 64.7173L69.7764 64.7008C69.7764 64.6832 69.965 62.9461 71.4942 62.9037V63.0685C70.1045 63.1061 69.9326 64.7008 69.9315 64.7173Z" fill="#120283"/>
<path d="M71.4388 64.4702C71.1787 64.1865 70.913 64.0523 70.6485 64.0664C70.2467 64.0911 69.9788 64.4596 69.9721 64.4631L69.8481 64.363C69.8615 64.3454 70.1652 63.9323 70.6373 63.9028C70.9555 63.884 71.2579 64.0358 71.5515 64.356L71.4388 64.4702Z" fill="#120283"/>
<path d="M48.2598 63.8038C48.2598 62.3339 49.2454 61.1406 50.4609 61.1406C51.6765 61.1406 52.6621 62.3339 52.6621 63.8038C52.6621 65.2737 51.6765 67.1238 50.4609 67.1238C49.2454 67.1238 48.2598 65.2749 48.2598 63.8038Z" fill="#E8ECF8"/>
<path d="M51.2859 64.7173L51.441 64.7008C51.441 64.6832 51.2524 62.9461 49.7231 62.9037V63.0684C51.1128 63.1061 51.2847 64.7008 51.2859 64.7173Z" fill="#120283"/>
<path d="M49.7767 64.4702C50.0367 64.1865 50.3035 64.0523 50.568 64.0664C50.9687 64.0911 51.2378 64.4596 51.2445 64.4631L51.3672 64.363C51.355 64.3454 51.0514 63.9323 50.5792 63.9028C50.26 63.884 49.9586 64.0358 49.665 64.356L49.7767 64.4702Z" fill="#120283"/>
<path d="M66.7805 74.0297C65.1497 76.0044 63.0847 77.2766 60.6078 77.2343C58.1342 77.2766 56.067 76.0044 54.4362 74.0297C54.4275 74.0167 54.4177 74.0045 54.4072 73.9932C51.486 70.1002 50.891 64.4301 51.6824 57.6784C52.2517 52.8227 56.5938 50.9398 59.006 50.2642C60.0556 49.97 61.1599 49.97 62.2096 50.2642C64.6217 50.9409 68.965 52.8239 69.5342 57.6784C70.3279 64.4513 69.7273 70.139 66.7805 74.0297Z" fill="#E8ECF8"/>
<path d="M63.9417 64.4594C64.2339 64.4594 64.4707 64.2097 64.4707 63.9016C64.4707 63.5935 64.2339 63.3438 63.9417 63.3438C63.6495 63.3438 63.4126 63.5935 63.4126 63.9016C63.4126 64.2097 63.6495 64.4594 63.9417 64.4594Z" fill="#120283"/>
<path d="M56.9407 64.4594C57.2329 64.4594 57.4698 64.2097 57.4698 63.9016C57.4698 63.5935 57.2329 63.3438 56.9407 63.3438C56.6485 63.3438 56.4116 63.5935 56.4116 63.9016C56.4116 64.2097 56.6485 64.4594 56.9407 64.4594Z" fill="#120283"/>
<path d="M67.3348 59.0767C67.3348 59.0767 65.9519 59.1143 64.1347 59.1237C62.3175 59.1331 61.8499 59.1143 62.0139 58.6224C62.178 58.1305 63.9985 58.1411 65.1393 58.3105C65.9035 58.4481 66.6437 58.7064 67.3348 59.0767V59.0767Z" fill="#120283"/>
<path d="M53.4248 59.0767C53.4248 59.0767 54.8078 59.1143 56.6239 59.1237C58.4399 59.1331 58.9088 59.1143 58.7447 58.6224C58.5806 58.1305 56.76 58.1411 55.6193 58.3105C54.8554 58.4481 54.1156 58.7063 53.4248 59.0767Z" fill="#120283"/>
<path d="M60.253 67.8217C60.0633 67.8217 59.8746 67.7899 59.7708 67.6875C59.7353 67.6525 59.709 67.6084 59.6944 67.5596C59.6797 67.5108 59.6772 67.4588 59.6871 67.4086C59.7641 66.8955 60.0476 64.8595 60.0499 64.8395L60.2039 64.863C60.2039 64.883 59.9182 66.9202 59.8411 67.4333C59.835 67.457 59.8351 67.482 59.8414 67.5056C59.8476 67.5292 59.8599 67.5506 59.8769 67.5675C60.0209 67.7099 60.5254 67.6558 60.8101 67.5875L60.8447 67.7475C60.6503 67.7931 60.4521 67.818 60.253 67.8217V67.8217Z" fill="#120283"/>
<path d="M61.2713 69.1091C61.0422 69.1118 60.8136 69.0857 60.5904 69.0314C60.5812 69.0289 60.5725 69.0244 60.5649 69.0183C60.5573 69.0123 60.5509 69.0047 60.5461 68.996C60.5413 68.9873 60.5381 68.9777 60.5368 68.9677C60.5355 68.9577 60.5361 68.9476 60.5385 68.9378C60.5409 68.9281 60.5452 68.919 60.5509 68.911C60.5567 68.9029 60.5639 68.8962 60.5721 68.8911C60.5804 68.8861 60.5895 68.8827 60.5989 68.8813C60.6084 68.88 60.618 68.8806 60.6273 68.8831C61.2246 69.0148 61.8455 68.9591 62.4132 68.7231C62.422 68.7192 62.4314 68.7171 62.441 68.717C62.4505 68.7169 62.46 68.7188 62.4689 68.7226C62.4777 68.7263 62.4858 68.7319 62.4926 68.739C62.4994 68.746 62.5049 68.7544 62.5086 68.7637C62.5124 68.773 62.5143 68.7829 62.5144 68.793C62.5145 68.8031 62.5127 68.8131 62.5091 68.8224C62.5056 68.8318 62.5003 68.8403 62.4936 68.8475C62.4869 68.8547 62.4789 68.8604 62.4701 68.8643C62.0897 69.0282 61.6823 69.1114 61.2713 69.1091V69.1091Z" fill="#120283"/>
<path d="M69.6297 55.2777L69.3462 70.2768L70.1655 60.8125C70.1655 60.8125 72.7048 57.2466 69.6297 55.2777Z" fill="#120283"/>
<path d="M51.7325 55.9449L51.8709 70.2767L51.0527 60.8124C51.0527 60.8124 48.6594 57.9138 51.7325 55.9449Z" fill="#120283"/>
<path d="M97.2952 123.467C95.9055 129.985 91.166 134.838 85.1452 138.444C84.4531 138.858 83.7462 139.256 83.0243 139.638C81.2037 140.593 79.3379 141.449 77.4343 142.203C76.7356 127.617 75.837 98.3778 75.5747 89.6584C82.5198 91.7168 96.9871 98.4308 97.6937 118.716C97.7552 120.311 97.6213 121.908 97.2952 123.467V123.467Z" fill="#BF0830"/>
<path d="M44.5309 89.8185L41.7727 145.058L37.5111 142.722L35.1056 141.402L24.563 135.623V114.164C24.563 114.164 24.7014 95.0449 44.5309 89.8185Z" fill="#BF0830"/>
<path d="M51.7689 58.6611C51.7689 58.6611 52.0915 55.6272 53.4243 53.976C53.4243 53.976 57.369 51.4246 67.3345 53.976C67.3345 53.976 69.2521 55.1811 69.5412 58.6611C69.5412 58.6611 70.8684 54.9975 68.9329 50.4773C66.9974 45.957 56.2014 46.0865 53.9277 48.4355C51.654 50.7845 48.504 55.7649 51.7689 58.6611Z" fill="#120283"/>
<path d="M85.146 138.444C84.4539 138.858 83.747 139.256 83.0252 139.638L79.9321 96.5326C80.0348 97.5317 82.7762 123.889 85.146 138.444Z" fill="#EF9143"/>
<path d="M35.1055 141.402C37.5712 127.834 40.7144 97.6033 40.826 96.5335L37.5109 142.722L35.1055 141.402Z" fill="#EF9143"/>
<path d="M46.6753 101.887C46.6753 101.887 59.1132 111.955 73.836 101.887C73.836 101.887 61.0175 115.566 46.6753 101.887Z" fill="#EDEDED"/>
<path d="M50.356 131.429C50.356 131.429 64.6982 126.345 72.8208 112.16C72.8164 112.16 64.8254 131.964 50.356 131.429Z" fill="#EDEDED"/>
<path d="M53.4238 53.9762C53.4238 53.9762 58.161 51.6096 58.4155 54.8212C58.67 58.0328 60.7919 59.6462 63.4106 58.2058C66.0292 56.7653 67.1722 57.4997 66.6018 59.971C66.0315 62.4424 68.5719 62.4683 71.5522 59.971C74.5325 57.4738 68.8075 52.4781 68.3074 52.2109C67.8074 51.9438 66.4221 48.731 62.5143 49.3335C58.6064 49.9361 53.4238 53.9762 53.4238 53.9762Z" fill="#120283"/>
<path d="M143.582 32.7022V60.9328C141.549 63.5622 138.404 66.8682 135.719 66.3949C131.343 65.6213 130.216 59.578 128.54 50.4709C126.864 41.3638 132.053 32.1833 143.582 32.7022Z" fill="#120283"/>
<path d="M143.583 32.7022V60.9328C145.616 63.5622 148.762 66.8682 151.446 66.3949C155.822 65.6213 156.948 59.578 158.624 50.4709C160.3 41.3638 155.118 32.1833 143.583 32.7022Z" fill="#120283"/>
<path d="M185.49 135.877C185.49 135.954 185.49 136.03 185.49 136.106C185.375 136.307 185.259 136.502 185.136 136.7C185.07 136.805 185.005 136.91 184.94 137.017C182.922 140.192 180.155 142.939 176.923 145.309C176.654 145.507 176.38 145.705 176.103 145.896C175.852 146.073 175.598 146.246 175.341 146.418C174.877 146.729 174.406 147.032 173.93 147.325C164.729 153.016 152.878 156.218 143.622 157.981C135.078 159.606 128.743 160 128.743 160L116.518 153.298L113.226 151.492L108.559 148.942L104.379 146.651L103.986 146.437L102.505 145.625L100.076 144.292V118.36C100.076 118.36 100.076 118.175 100.094 117.834C100.106 117.631 100.122 117.372 100.148 117.063C100.148 117.018 100.154 116.972 100.16 116.925C100.229 116.122 100.357 115.017 100.59 113.699C100.893 111.997 101.306 110.318 101.825 108.674C101.903 108.431 101.987 108.182 102.071 107.931C103.036 105.051 104.36 102.318 106.008 99.8052C106.168 99.5658 106.33 99.3264 106.499 99.087C108.674 95.9763 111.383 93.3245 114.487 91.2697C114.835 91.0372 115.195 90.8088 115.562 90.5874C116.932 89.7598 118.356 89.0374 119.824 88.4258C120.801 88.018 121.826 87.6449 122.901 87.3063C123.951 86.9797 125.048 86.6896 126.191 86.4358C126.384 86.3943 126.577 86.3528 126.774 86.3141C127.716 86.1203 128.694 85.9547 129.706 85.8172L157.315 85.6941L157.418 85.7273C157.718 85.8242 158.661 86.1425 160.026 86.6863L160.095 86.7154L160.183 86.7513C160.217 86.7638 160.259 86.7804 160.305 86.8026C160.622 86.9326 160.962 87.0793 161.313 87.2177C162.29 87.6398 163.4 88.1518 164.595 88.7607C165.645 89.3004 166.767 89.9135 167.91 90.604C168.277 90.8254 168.645 91.0561 169.015 91.296C172.155 93.3053 175.406 95.8875 178.039 99.105C178.233 99.3375 178.424 99.5755 178.607 99.8163C180.5 102.223 181.926 104.996 182.808 107.981C182.884 108.229 182.958 108.481 183.032 108.735C183.562 110.631 183.982 112.559 184.289 114.509C184.384 115.077 184.469 115.654 184.552 116.236C184.594 116.544 184.636 116.854 184.674 117.166C184.705 117.42 184.737 117.676 184.767 117.932C184.855 118.66 184.932 119.395 184.998 120.137C185.196 122.246 185.328 124.382 185.41 126.483C185.421 126.743 185.43 127.001 185.44 127.259C185.54 130.283 185.54 133.221 185.49 135.877Z" fill="#120283"/>
<path d="M103.298 133.862C103.298 134.403 102.51 135.338 101.947 135.944C101.873 136.027 101.785 136.093 101.686 136.138C101.587 136.183 101.481 136.206 101.374 136.206C101.266 136.206 101.16 136.183 101.061 136.138C100.962 136.093 100.874 136.027 100.8 135.944C100.576 135.704 100.317 135.413 100.086 135.114V132.604C100.306 132.319 100.553 132.038 100.772 131.804C100.85 131.718 100.943 131.65 101.046 131.604C101.15 131.557 101.261 131.533 101.373 131.533C101.485 131.533 101.596 131.557 101.699 131.604C101.803 131.65 101.896 131.718 101.973 131.804C102.538 132.413 103.298 133.328 103.298 133.862Z" fill="#B036CE"/>
<path d="M115.68 131.805C115.505 131.631 115.274 131.534 115.034 131.534C114.794 131.534 114.562 131.631 114.388 131.805C113.782 132.413 112.964 133.328 112.964 133.86C112.964 134.393 113.808 135.338 114.417 135.946C114.584 136.112 114.804 136.204 115.034 136.204C115.263 136.204 115.484 136.112 115.651 135.946C116.26 135.338 117.102 134.403 117.102 133.86C117.102 133.318 116.286 132.413 115.68 131.805Z" fill="#B036CE"/>
<path d="M129.137 131.805C129.059 131.72 128.966 131.652 128.863 131.605C128.759 131.559 128.648 131.535 128.536 131.535C128.424 131.535 128.313 131.559 128.21 131.605C128.106 131.652 128.013 131.72 127.936 131.805C127.371 132.413 126.611 133.328 126.611 133.86C126.611 134.393 127.399 135.338 127.963 135.946C128.037 136.028 128.126 136.094 128.224 136.139C128.323 136.184 128.429 136.207 128.537 136.207C128.644 136.207 128.751 136.184 128.849 136.139C128.948 136.094 129.037 136.028 129.11 135.946C129.677 135.338 130.462 134.403 130.462 133.86C130.462 133.318 129.702 132.413 129.137 131.805Z" fill="#B036CE"/>
<path d="M142.842 131.805C142.668 131.631 142.437 131.534 142.196 131.534C141.956 131.534 141.725 131.631 141.551 131.805C140.944 132.413 140.128 133.328 140.128 133.86C140.128 134.393 140.971 135.338 141.58 135.946C141.746 136.112 141.967 136.204 142.196 136.204C142.426 136.204 142.647 136.112 142.813 135.946C143.422 135.338 144.265 134.403 144.265 133.86C144.265 133.318 143.449 132.413 142.842 131.805Z" fill="#B036CE"/>
<path d="M156.301 131.805C156.223 131.72 156.13 131.652 156.027 131.605C155.923 131.559 155.812 131.535 155.7 131.535C155.588 131.535 155.476 131.559 155.373 131.605C155.27 131.652 155.176 131.72 155.099 131.805C154.534 132.413 153.774 133.327 153.774 133.86C153.774 134.393 154.562 135.338 155.126 135.946C155.2 136.028 155.289 136.094 155.387 136.139C155.486 136.184 155.592 136.207 155.7 136.207C155.807 136.207 155.914 136.184 156.012 136.139C156.111 136.094 156.2 136.028 156.273 135.946C156.84 135.338 157.625 134.403 157.625 133.86C157.625 133.318 156.86 132.413 156.301 131.805Z" fill="#B036CE"/>
<path d="M170.004 131.805C169.83 131.632 169.599 131.535 169.359 131.535C169.119 131.535 168.888 131.632 168.714 131.805C168.106 132.413 167.29 133.328 167.29 133.86C167.29 134.393 168.133 135.338 168.743 135.946C168.91 136.112 169.13 136.204 169.359 136.204C169.588 136.204 169.809 136.112 169.975 135.946C170.586 135.338 171.428 134.403 171.428 133.86C171.428 133.318 170.612 132.413 170.004 131.805Z" fill="#B036CE"/>
<path d="M183.464 131.805C183.386 131.72 183.293 131.652 183.19 131.605C183.087 131.559 182.976 131.535 182.864 131.535C182.751 131.535 182.64 131.559 182.537 131.605C182.434 131.652 182.341 131.72 182.263 131.805C181.697 132.413 180.938 133.328 180.938 133.86C180.938 134.393 181.725 135.338 182.289 135.946C182.363 136.028 182.452 136.094 182.55 136.139C182.649 136.184 182.755 136.207 182.863 136.207C182.97 136.207 183.077 136.184 183.175 136.139C183.274 136.094 183.363 136.028 183.436 135.946C184.005 135.338 184.788 134.403 184.788 133.86C184.788 133.318 184.03 132.413 183.464 131.805Z" fill="#B036CE"/>
<path d="M108.855 123.21C108.681 123.036 108.45 122.939 108.21 122.939C107.969 122.939 107.738 123.036 107.564 123.21C106.957 123.818 106.141 124.733 106.141 125.265C106.141 125.798 106.984 126.743 107.593 127.351C107.76 127.516 107.98 127.608 108.21 127.608C108.439 127.608 108.659 127.516 108.827 127.351C109.436 126.743 110.28 125.808 110.28 125.265C110.28 124.723 109.462 123.818 108.855 123.21Z" fill="#B036CE"/>
<path d="M122.314 123.21C122.236 123.125 122.143 123.057 122.039 123.01C121.936 122.964 121.825 122.94 121.713 122.94C121.6 122.94 121.489 122.964 121.386 123.01C121.282 123.057 121.189 123.125 121.111 123.21C120.547 123.818 119.787 124.732 119.787 125.265C119.787 125.798 120.575 126.743 121.139 127.351C121.213 127.432 121.302 127.497 121.401 127.541C121.499 127.586 121.605 127.608 121.713 127.608C121.82 127.608 121.926 127.586 122.024 127.541C122.123 127.497 122.212 127.432 122.286 127.351C122.853 126.743 123.638 125.808 123.638 125.265C123.638 124.723 122.878 123.818 122.314 123.21Z" fill="#B036CE"/>
<path d="M136.019 123.21C135.844 123.036 135.613 122.939 135.373 122.939C135.133 122.939 134.903 123.036 134.728 123.21C134.121 123.818 133.304 124.732 133.304 125.265C133.304 125.798 134.147 126.743 134.757 127.351C134.924 127.516 135.144 127.608 135.373 127.608C135.602 127.608 135.823 127.516 135.99 127.351C136.6 126.743 137.443 125.808 137.443 125.265C137.443 124.723 136.626 123.818 136.019 123.21Z" fill="#B036CE"/>
<path d="M149.477 123.21C149.399 123.125 149.306 123.057 149.203 123.01C149.1 122.964 148.989 122.94 148.876 122.94C148.764 122.94 148.653 122.964 148.55 123.01C148.447 123.057 148.353 123.125 148.276 123.21C147.71 123.818 146.95 124.733 146.95 125.265C146.95 125.798 147.738 126.743 148.302 127.351C148.376 127.432 148.465 127.497 148.564 127.541C148.663 127.586 148.769 127.609 148.876 127.609C148.983 127.609 149.089 127.586 149.187 127.541C149.286 127.497 149.375 127.432 149.449 127.351C150.018 126.743 150.801 125.808 150.801 125.265C150.801 124.723 150.041 123.818 149.477 123.21Z" fill="#B036CE"/>
<path d="M163.181 123.21C163.006 123.036 162.776 122.939 162.536 122.939C162.296 122.939 162.065 123.036 161.89 123.21C161.283 123.818 160.466 124.732 160.466 125.265C160.466 125.798 161.309 126.743 161.919 127.351C162.086 127.516 162.307 127.608 162.536 127.608C162.765 127.608 162.985 127.516 163.152 127.351C163.762 126.743 164.605 125.808 164.605 125.265C164.605 124.723 163.788 123.818 163.181 123.21Z" fill="#B036CE"/>
<path d="M176.64 123.21C176.563 123.125 176.469 123.057 176.366 123.01C176.263 122.964 176.152 122.94 176.04 122.94C175.927 122.94 175.816 122.964 175.713 123.01C175.61 123.057 175.517 123.125 175.439 123.21C174.875 123.818 174.115 124.733 174.115 125.265C174.115 125.798 174.902 126.743 175.467 127.351C175.541 127.432 175.63 127.497 175.729 127.541C175.827 127.586 175.933 127.609 176.04 127.609C176.147 127.609 176.253 127.586 176.352 127.541C176.451 127.497 176.54 127.432 176.614 127.351C177.181 126.743 177.966 125.808 177.966 125.265C177.966 124.723 177.204 123.818 176.64 123.21Z" fill="#B036CE"/>
<path d="M103.298 115.565C103.298 116.106 102.511 117.043 101.948 117.65C101.874 117.733 101.785 117.798 101.686 117.843C101.588 117.888 101.481 117.911 101.374 117.911C101.267 117.911 101.16 117.888 101.062 117.843C100.963 117.798 100.874 117.733 100.8 117.65C100.601 117.437 100.378 117.185 100.17 116.925C100.24 116.122 100.367 115.017 100.601 113.699L100.773 113.511C100.85 113.425 100.944 113.357 101.047 113.311C101.15 113.264 101.261 113.24 101.373 113.24C101.486 113.24 101.597 113.264 101.7 113.311C101.803 113.357 101.896 113.425 101.974 113.511C102.538 114.117 103.298 115.033 103.298 115.565Z" fill="#B036CE"/>
<path d="M115.68 113.51C115.505 113.336 115.274 113.238 115.034 113.238C114.794 113.238 114.562 113.336 114.388 113.51C113.782 114.117 112.964 115.032 112.964 115.566C112.964 116.1 113.808 117.044 114.417 117.65C114.584 117.816 114.804 117.908 115.034 117.908C115.263 117.908 115.484 117.816 115.651 117.65C116.26 117.044 117.102 116.107 117.102 115.566C117.102 115.025 116.286 114.117 115.68 113.51Z" fill="#B036CE"/>
<path d="M129.137 113.51C129.059 113.424 128.966 113.356 128.863 113.309C128.759 113.263 128.648 113.239 128.536 113.239C128.424 113.239 128.313 113.263 128.21 113.309C128.106 113.356 128.013 113.424 127.936 113.51C127.371 114.117 126.611 115.032 126.611 115.566C126.611 116.1 127.399 117.044 127.963 117.65C128.037 117.732 128.126 117.798 128.224 117.843C128.323 117.888 128.429 117.911 128.537 117.911C128.644 117.911 128.751 117.888 128.849 117.843C128.948 117.798 129.037 117.732 129.11 117.65C129.677 117.044 130.462 116.107 130.462 115.566C130.462 115.025 129.702 114.117 129.137 113.51Z" fill="#B036CE"/>
<path d="M142.842 113.51C142.668 113.336 142.437 113.238 142.196 113.238C141.956 113.238 141.725 113.336 141.551 113.51C140.944 114.117 140.128 115.032 140.128 115.566C140.128 116.1 140.971 117.044 141.58 117.65C141.746 117.816 141.967 117.908 142.196 117.908C142.426 117.908 142.647 117.816 142.813 117.65C143.422 117.044 144.265 116.107 144.265 115.566C144.265 115.025 143.449 114.117 142.842 113.51Z" fill="#B036CE"/>
<path d="M156.301 113.51C156.223 113.424 156.13 113.356 156.027 113.309C155.923 113.263 155.812 113.239 155.7 113.239C155.588 113.239 155.476 113.263 155.373 113.309C155.27 113.356 155.176 113.424 155.099 113.51C154.534 114.117 153.774 115.032 153.774 115.566C153.774 116.1 154.562 117.044 155.126 117.65C155.2 117.733 155.289 117.798 155.387 117.843C155.486 117.888 155.592 117.911 155.7 117.911C155.807 117.911 155.914 117.888 156.012 117.843C156.111 117.798 156.2 117.733 156.273 117.65C156.84 117.044 157.625 116.107 157.625 115.566C157.625 115.025 156.86 114.117 156.301 113.51Z" fill="#B036CE"/>
<path d="M170.004 113.51C169.83 113.336 169.599 113.239 169.359 113.239C169.119 113.239 168.888 113.336 168.714 113.51C168.106 114.117 167.29 115.032 167.29 115.566C167.29 116.1 168.133 117.044 168.743 117.65C168.91 117.816 169.13 117.908 169.359 117.908C169.588 117.908 169.809 117.816 169.975 117.65C170.586 117.044 171.428 116.107 171.428 115.566C171.428 115.025 170.612 114.117 170.004 113.51Z" fill="#B036CE"/>
<path d="M184.555 116.23C184.232 116.744 183.859 117.22 183.441 117.65C183.367 117.732 183.277 117.797 183.179 117.841C183.08 117.885 182.974 117.908 182.867 117.908C182.759 117.908 182.653 117.885 182.554 117.841C182.456 117.797 182.367 117.732 182.292 117.65C181.725 117.042 180.94 116.106 180.94 115.565C180.94 115.023 181.7 114.117 182.266 113.51C182.344 113.424 182.437 113.356 182.54 113.309C182.643 113.263 182.754 113.239 182.867 113.239C182.979 113.239 183.09 113.263 183.193 113.309C183.296 113.356 183.39 113.424 183.467 113.51C183.762 113.822 184.039 114.154 184.295 114.503C184.387 115.076 184.472 115.649 184.555 116.23Z" fill="#B036CE"/>
<path d="M108.855 104.914C108.681 104.74 108.45 104.643 108.21 104.643C107.969 104.643 107.738 104.74 107.564 104.914C106.957 105.522 106.141 106.436 106.141 106.971C106.141 107.505 106.984 108.447 107.593 109.055C107.76 109.221 107.98 109.313 108.21 109.313C108.439 109.313 108.66 109.221 108.827 109.055C109.436 108.447 110.28 107.512 110.28 106.971C110.28 106.43 109.462 105.527 108.855 104.914Z" fill="#B036CE"/>
<path d="M122.314 104.914C122.236 104.829 122.143 104.761 122.039 104.714C121.936 104.668 121.825 104.644 121.713 104.644C121.6 104.644 121.489 104.668 121.386 104.714C121.282 104.761 121.189 104.829 121.111 104.914C120.547 105.522 119.787 106.437 119.787 106.971C119.787 107.505 120.575 108.447 121.139 109.055C121.213 109.137 121.302 109.203 121.4 109.248C121.499 109.293 121.605 109.316 121.713 109.316C121.82 109.316 121.926 109.293 122.025 109.248C122.124 109.203 122.213 109.137 122.286 109.055C122.853 108.447 123.638 107.512 123.638 106.971C123.638 106.43 122.878 105.528 122.314 104.914Z" fill="#B036CE"/>
<path d="M136.019 104.914C135.844 104.74 135.613 104.644 135.373 104.644C135.133 104.644 134.903 104.74 134.728 104.914C134.121 105.522 133.304 106.437 133.304 106.971C133.304 107.505 134.147 108.447 134.757 109.055C134.924 109.221 135.144 109.313 135.373 109.313C135.603 109.313 135.823 109.221 135.99 109.055C136.6 108.447 137.443 107.512 137.443 106.971C137.443 106.43 136.626 105.527 136.019 104.914Z" fill="#B036CE"/>
<path d="M149.477 104.914C149.399 104.829 149.306 104.761 149.203 104.714C149.1 104.668 148.989 104.644 148.876 104.644C148.764 104.644 148.653 104.668 148.55 104.714C148.447 104.761 148.353 104.829 148.276 104.914C147.71 105.522 146.95 106.437 146.95 106.971C146.95 107.505 147.738 108.447 148.302 109.055C148.376 109.137 148.465 109.203 148.563 109.248C148.662 109.293 148.768 109.316 148.876 109.316C148.983 109.316 149.089 109.293 149.188 109.248C149.287 109.203 149.376 109.137 149.449 109.055C150.018 108.447 150.801 107.512 150.801 106.971C150.801 106.43 150.041 105.527 149.477 104.914Z" fill="#B036CE"/>
<path d="M163.181 104.914C163.006 104.74 162.776 104.644 162.536 104.644C162.296 104.644 162.065 104.74 161.89 104.914C161.283 105.522 160.466 106.437 160.466 106.971C160.466 107.505 161.309 108.447 161.919 109.055C162.086 109.221 162.306 109.313 162.536 109.313C162.765 109.313 162.985 109.221 163.152 109.055C163.762 108.447 164.605 107.512 164.605 106.971C164.605 106.43 163.788 105.527 163.181 104.914Z" fill="#B036CE"/>
<path d="M176.64 104.914C176.563 104.829 176.469 104.761 176.366 104.714C176.263 104.668 176.152 104.644 176.04 104.644C175.927 104.644 175.816 104.668 175.713 104.714C175.61 104.761 175.517 104.829 175.439 104.914C174.875 105.522 174.115 106.437 174.115 106.971C174.115 107.505 174.902 108.447 175.467 109.055C175.54 109.137 175.629 109.203 175.728 109.248C175.826 109.293 175.933 109.316 176.04 109.316C176.148 109.316 176.254 109.293 176.353 109.248C176.451 109.203 176.54 109.137 176.614 109.055C177.181 108.447 177.966 107.512 177.966 106.971C177.966 106.43 177.204 105.527 176.64 104.914Z" fill="#B036CE"/>
<path d="M115.68 95.2149C115.505 95.0403 115.274 94.9429 115.034 94.9429C114.793 94.9429 114.562 95.0403 114.388 95.2149C113.782 95.8211 112.964 96.7372 112.964 97.27C112.964 97.8027 113.808 98.7479 114.417 99.354C114.584 99.52 114.804 99.6124 115.034 99.6124C115.263 99.6124 115.484 99.52 115.651 99.354C116.26 98.7479 117.102 97.8111 117.102 97.27C117.102 96.7289 116.286 95.8211 115.68 95.2149Z" fill="#B036CE"/>
<path d="M129.137 95.215C129.059 95.1291 128.966 95.0607 128.863 95.014C128.76 94.9673 128.649 94.9432 128.536 94.9432C128.424 94.9432 128.313 94.9673 128.209 95.014C128.106 95.0607 128.013 95.1291 127.936 95.215C127.371 95.8211 126.611 96.7373 126.611 97.2701C126.611 97.8028 127.399 98.748 127.963 99.3542C128.037 99.4367 128.126 99.5024 128.224 99.5474C128.323 99.5923 128.429 99.6155 128.537 99.6155C128.644 99.6155 128.751 99.5923 128.849 99.5474C128.948 99.5024 129.037 99.4367 129.11 99.3542C129.677 98.748 130.462 97.8112 130.462 97.2701C130.462 96.729 129.702 95.8211 129.137 95.215Z" fill="#B036CE"/>
<path d="M142.842 95.2149C142.668 95.0403 142.437 94.9429 142.196 94.9429C141.956 94.9429 141.725 95.0403 141.551 95.2149C140.944 95.8211 140.128 96.7372 140.128 97.27C140.128 97.8027 140.971 98.7479 141.58 99.354C141.746 99.52 141.967 99.6124 142.196 99.6124C142.426 99.6124 142.647 99.52 142.813 99.354C143.422 98.7479 144.265 97.8111 144.265 97.27C144.265 96.7289 143.449 95.8211 142.842 95.2149Z" fill="#B036CE"/>
<path d="M156.301 95.2151C156.224 95.1292 156.13 95.0607 156.027 95.014C155.924 94.9672 155.812 94.9432 155.7 94.9432C155.587 94.9432 155.476 94.9672 155.373 95.014C155.27 95.0607 155.176 95.1292 155.099 95.2151C154.534 95.8212 153.774 96.7373 153.774 97.2701C153.774 97.8029 154.562 98.7481 155.126 99.3542C155.2 99.4367 155.289 99.5025 155.387 99.5474C155.486 99.5924 155.592 99.6156 155.7 99.6156C155.807 99.6156 155.914 99.5924 156.012 99.5474C156.111 99.5025 156.2 99.4367 156.273 99.3542C156.84 98.7481 157.625 97.8112 157.625 97.2701C157.625 96.729 156.86 95.8212 156.301 95.2151Z" fill="#B036CE"/>
<path d="M170.004 95.2151C169.83 95.0405 169.599 94.9432 169.359 94.9432C169.119 94.9432 168.888 95.0405 168.714 95.2151C168.106 95.8212 167.29 96.7373 167.29 97.2701C167.29 97.8029 168.133 98.7481 168.743 99.3542C168.91 99.52 169.13 99.6124 169.359 99.6124C169.588 99.6124 169.809 99.52 169.975 99.3542C170.586 98.7481 171.428 97.8112 171.428 97.2701C171.428 96.729 170.612 95.8212 170.004 95.2151Z" fill="#B036CE"/>
<path d="M123.638 88.6749C123.638 89.2174 122.851 90.1528 122.288 90.759C122.213 90.8406 122.124 90.9057 122.025 90.9501C121.927 90.9945 121.821 91.0174 121.713 91.0174C121.606 91.0174 121.5 90.9945 121.401 90.9501C121.302 90.9057 121.213 90.8406 121.139 90.759C120.571 90.1528 119.787 89.2174 119.787 88.6749C119.789 88.5894 119.804 88.5048 119.832 88.4244C120.808 88.0167 121.834 87.6434 122.908 87.3048C123.301 87.7947 123.638 88.3207 123.638 88.6749Z" fill="#B036CE"/>
<path d="M164.604 88.7662C164.52 89.3197 163.735 90.186 163.16 90.7589C162.994 90.9247 162.773 91.0172 162.544 91.0172C162.315 91.0172 162.094 90.9247 161.928 90.7589C161.317 90.1528 160.476 89.2174 160.476 88.6749C160.476 88.3013 160.88 87.7367 161.329 87.2233C162.298 87.6453 163.408 88.1573 164.604 88.7662Z" fill="#B036CE"/>
<path d="M157.323 85.6926C157.136 85.9127 143.766 101.499 126.782 86.3126C127.724 86.1188 128.702 85.9533 129.714 85.8158L157.323 85.6926Z" fill="#120283"/>
<path d="M157.325 85.6915C154.267 88.3748 151.303 90.0049 148.513 90.8933H148.493C139.287 93.7994 131.955 88.5878 129.098 86.0678C129.305 85.9834 129.512 85.9004 129.715 85.8118C130.251 85.5867 130.768 85.3135 131.261 84.9954C133.382 83.6253 134.772 81.7295 135.676 79.7367C137.876 74.878 137.212 69.4132 137.212 69.4132H150.128C149.982 71.2334 150 73.0641 150.181 74.8808C150.338 76.5165 150.648 78.0831 151.231 79.525C152.23 82.0464 154.057 84.1941 157.325 85.6915Z" fill="#E8ECF8"/>
<path d="M150.177 74.8777C149.421 76.2422 148.339 77.2054 146.802 77.341C140.784 77.8682 137.399 71.634 137.47 71.0583L137.782 69.4088H150.12C149.975 71.2296 149.994 73.0607 150.177 74.8777V74.8777Z" fill="#120283"/>
<path d="M158.281 57.4911C158.281 55.7143 157.089 54.2723 155.62 54.2723C154.152 54.2723 152.96 55.7143 152.96 57.4911C152.96 59.268 154.15 61.5043 155.62 61.5043C157.091 61.5043 158.281 59.2694 158.281 57.4911Z" fill="#E8ECF8"/>
<path d="M154.923 58.5944L154.737 58.575C154.737 58.5528 154.964 56.4549 156.812 56.4037V56.6016C155.133 56.6486 154.926 58.575 154.923 58.5944Z" fill="#120283"/>
<path d="M156.747 58.2967C156.432 57.9536 156.111 57.7918 155.79 57.8098C155.306 57.8388 154.976 58.2829 154.974 58.2871L154.824 58.1667C154.84 58.146 155.206 57.6465 155.777 57.6133C156.162 57.5898 156.527 57.7738 156.882 58.1598L156.747 58.2967Z" fill="#120283"/>
<path d="M128.734 57.4911C128.734 55.7143 129.925 54.2723 131.395 54.2723C132.865 54.2723 134.054 55.7143 134.054 57.4911C134.054 59.268 132.863 61.5043 131.395 61.5043C129.926 61.5043 128.734 59.2694 128.734 57.4911Z" fill="#E8ECF8"/>
<path d="M132.386 58.5944L132.574 58.575C132.574 58.5528 132.346 56.4549 130.499 56.4037V56.6016C132.178 56.6486 132.385 58.575 132.386 58.5944Z" fill="#120283"/>
<path d="M130.563 58.2967C130.878 57.9536 131.199 57.7918 131.52 57.8098C132.004 57.8388 132.332 58.2829 132.336 58.2871L132.486 58.1667C132.47 58.146 132.104 57.6465 131.532 57.6133C131.147 57.5898 130.782 57.7738 130.428 58.1598L130.563 58.2967Z" fill="#120283"/>
<path d="M151.114 69.8504C149.145 72.2375 146.652 73.775 143.654 73.7252C140.664 73.7764 138.166 72.2389 136.195 69.8504C136.184 69.8344 136.172 69.8196 136.159 69.8061C132.628 65.101 131.91 58.2482 132.866 50.089C133.554 44.2187 138.804 41.9437 141.718 41.1258C142.986 40.7702 144.321 40.7702 145.59 41.1258C148.505 41.9437 153.754 44.2187 154.443 50.089C155.402 58.2731 154.676 65.1453 151.114 69.8504Z" fill="#E8ECF8"/>
<path d="M147.682 58.2843C148.036 58.2843 148.323 57.9819 148.323 57.609C148.323 57.236 148.036 56.9337 147.682 56.9337C147.328 56.9337 147.042 57.236 147.042 57.609C147.042 57.9819 147.328 58.2843 147.682 58.2843Z" fill="#120283"/>
<path d="M139.222 58.2843C139.576 58.2843 139.863 57.9819 139.863 57.609C139.863 57.236 139.576 56.9337 139.222 56.9337C138.868 56.9337 138.581 57.236 138.581 57.609C138.581 57.9819 138.868 58.2843 139.222 58.2843Z" fill="#120283"/>
<path d="M151.101 51.9976C151.101 51.9976 149.564 52.064 147.548 52.0807C145.532 52.0973 145.009 52.064 145.185 51.2018C145.361 50.3395 147.39 50.3548 148.652 50.6482C149.913 50.9416 151.101 51.9976 151.101 51.9976Z" fill="#120283"/>
<path d="M135.653 51.9976C135.653 51.9976 137.189 52.064 139.206 52.0807C141.223 52.0973 141.744 52.064 141.569 51.2018C141.393 50.3395 139.365 50.3548 138.102 50.6482C136.839 50.9416 135.653 51.9976 135.653 51.9976Z" fill="#120283"/>
<path d="M143.225 62.3514C142.995 62.3514 142.768 62.3127 142.642 62.1895C142.599 62.147 142.567 62.0936 142.55 62.0345C142.532 61.9755 142.529 61.9126 142.541 61.8519C142.634 61.2319 142.976 58.7714 142.98 58.7465L143.165 58.7756C143.165 58.8005 142.82 61.2665 142.727 61.8823C142.72 61.9108 142.719 61.9409 142.727 61.9694C142.734 61.9979 142.749 62.0238 142.769 62.0442C142.945 62.2158 143.557 62.1508 143.898 62.0678L143.94 62.2615C143.705 62.3166 143.465 62.3468 143.225 62.3514V62.3514Z" fill="#120283"/>
<path d="M143.866 63.7976C143.637 63.8006 143.409 63.7788 143.185 63.7325C143.171 63.7293 143.158 63.7231 143.146 63.7143C143.134 63.7055 143.124 63.6943 143.117 63.6813C143.11 63.6683 143.105 63.6539 143.103 63.6389C143.101 63.6239 143.102 63.6087 143.106 63.5941C143.109 63.5795 143.115 63.5656 143.124 63.5534C143.132 63.5412 143.143 63.531 143.155 63.5232C143.167 63.5155 143.181 63.5104 143.195 63.5083C143.209 63.5062 143.224 63.5072 143.237 63.5111C143.333 63.5346 145.6 64.0536 146.781 61.7923C146.788 61.7795 146.797 61.7682 146.808 61.759C146.818 61.7499 146.831 61.743 146.844 61.7389C146.857 61.7348 146.871 61.7335 146.885 61.7351C146.899 61.7366 146.912 61.741 146.924 61.748C146.936 61.755 146.947 61.7645 146.956 61.7759C146.965 61.7872 146.971 61.8003 146.975 61.8143C146.979 61.8283 146.98 61.843 146.979 61.8575C146.977 61.872 146.973 61.8861 146.966 61.8989C146.112 63.5291 144.703 63.7976 143.866 63.7976Z" fill="#120283"/>
<path d="M145.31 64.2654C145.283 64.2663 145.257 64.2565 145.237 64.2378C145.217 64.2192 145.204 64.1932 145.202 64.1651C145.199 64.137 145.207 64.109 145.223 64.0867C145.24 64.0645 145.264 64.0496 145.29 64.0453C145.448 64.0138 145.599 63.9543 145.738 63.8695C145.75 63.862 145.763 63.8571 145.776 63.855C145.79 63.8528 145.804 63.8536 145.817 63.8572C145.831 63.8608 145.843 63.8672 145.855 63.8759C145.866 63.8847 145.875 63.8957 145.882 63.9083C145.896 63.9337 145.9 63.9638 145.893 63.9923C145.886 64.0208 145.869 64.0453 145.845 64.0605C145.686 64.1579 145.512 64.2262 145.331 64.2626L145.31 64.2654Z" fill="#120283"/>
<path d="M153.744 46.538L154.448 57.6088L155.205 53.8724C155.205 53.8724 157.458 48.9182 153.744 46.538Z" fill="#120283"/>
<path d="M133.563 45.244L132.572 57.606L132.103 53.8696C132.103 53.8696 129.849 48.9181 133.563 45.244Z" fill="#120283"/>
<path d="M157.325 85.6912C154.267 88.3746 151.303 90.0047 148.513 90.8932H148.493C139.287 93.7993 131.955 88.5876 129.098 86.0676C129.305 85.9832 129.512 85.9001 129.715 85.8116C130.251 85.5864 130.768 85.3133 131.261 84.9951C133.382 83.6251 134.772 81.7291 135.676 79.7364C138.481 80.7881 144.584 82.3658 151.226 79.5247C152.23 82.0461 154.057 84.1939 157.325 85.6912Z" fill="#E8ECF8"/>
<path d="M156.879 54.6571C150.757 58.6855 147.716 50.5055 147.679 46.5394C147.643 42.5732 143.654 42.7614 143.654 42.7614C141.568 42.3186 138.677 44.3349 139.22 48.2678C139.763 52.2008 137.482 53.7756 134.647 54.7194C131.812 55.6632 130.095 53.8545 130.095 53.8545L130.266 52.9162C131.972 53.0546 135.76 52.8415 137.133 48.665C137.04 48.7785 134.795 53.6178 130.35 52.4582L132.572 40.3217L143.7 37.4156H146.968C146.968 37.4156 153.006 39.9328 154.733 44.1024C156.46 48.272 155.618 52.9494 155.618 52.9494C152.889 53.6317 150.753 49.3721 150.692 49.2587C152.557 54.2516 156.815 53.2829 156.815 53.2829L156.879 54.6571Z" fill="#120283"/>
<path d="M227.092 44.5984C227.092 44.5984 235.076 40.517 239.345 50.3009C243.614 60.0848 242.663 68.1494 247.986 72.1963C253.308 76.2433 250.889 82.3679 247.865 86.4659C244.84 90.5639 236.432 94.8953 229.143 90.7527C221.855 86.61 216.775 92.4439 211.331 86.4659C205.888 80.488 205.952 74.8594 209.246 70.9145C212.54 66.9696 214.062 39.0656 227.092 44.5984Z" fill="#120283"/>
<path d="M267.418 119.895C267.418 119.908 267.418 119.919 267.418 119.932C267.379 120.587 267.337 121.233 267.297 121.872C267.165 123.923 267.027 125.889 266.883 127.772C265.456 146.554 263.617 156.87 263.617 156.87H192.326C192.326 156.87 189.672 140.693 188.996 127.017C188.754 122.118 188.766 117.54 189.245 114.135C190.389 106.042 194.795 100.853 199.674 97.5391L199.707 97.5162C200.33 97.094 200.961 96.7037 201.594 96.3415C201.878 96.1795 202.16 96.0226 202.441 95.8708C203.676 95.2132 204.947 94.6319 206.247 94.1299C207 93.8378 207.733 93.5814 208.437 93.3557C208.607 93.3021 208.774 93.2498 208.938 93.2001C210.208 92.8175 211.358 92.5305 212.325 92.3238C213.332 92.1026 214.349 91.9357 215.371 91.8239L239.725 91.7142H239.745C241.072 91.9405 242.388 92.2385 243.687 92.607H243.693C244.556 92.8455 245.525 93.1401 246.564 93.4998L246.691 93.5432C247.363 93.7766 248.065 94.0368 248.787 94.325C249.8 94.7293 250.852 95.191 251.917 95.7178C252.505 96.0069 253.098 96.3177 253.694 96.6501C253.985 96.8121 254.277 96.9805 254.568 97.1527C261.522 101.279 268.128 108.273 267.418 119.895Z" fill="#BF0830"/>
<path d="M239.737 91.7192C237.039 94.0864 234.425 95.5238 231.964 96.3108H231.947C223.83 98.8782 217.362 94.279 214.843 92.0547C215.026 91.982 215.206 91.908 215.388 91.8315C215.861 91.6323 216.317 91.3912 216.751 91.1109C223.162 86.9619 221.999 75.5672 221.999 75.5672H233.391C233.262 77.1731 233.278 78.7881 233.437 80.3909C233.82 84.36 235.205 89.6454 239.737 91.7192Z" fill="#E8ECF8"/>
<path d="M233.431 80.391C232.765 81.5937 231.809 82.4432 230.457 82.5593C225.148 83.0235 222.163 77.5263 222.231 77.0187L222.506 75.5634H233.394C233.263 77.1703 233.275 78.7866 233.431 80.391V80.391Z" fill="#120283"/>
<path d="M240.578 65.0575C240.578 63.4887 239.528 62.2184 238.233 62.2184C236.937 62.2184 235.886 63.4938 235.886 65.0575C235.886 66.6212 236.936 68.5955 238.233 68.5955C239.529 68.5955 240.578 66.6314 240.578 65.0575Z" fill="#E8ECF8"/>
<path d="M237.618 66.0295L237.453 66.0116C237.453 65.9938 237.654 64.1431 239.284 64.0984V64.2732C237.802 64.314 237.619 66.0129 237.618 66.0295Z" fill="#120283"/>
<path d="M239.226 65.7667C238.949 65.4645 238.666 65.3216 238.379 65.3369C237.952 65.3624 237.662 65.7553 237.659 65.7591L237.527 65.6532C237.63 65.5171 237.757 65.4037 237.901 65.3195C238.046 65.2352 238.204 65.1818 238.368 65.1622C238.707 65.1431 239.029 65.3038 239.342 65.6456L239.226 65.7667Z" fill="#120283"/>
<path d="M214.521 65.0575C214.521 63.4887 215.572 62.2184 216.867 62.2184C218.163 62.2184 219.214 63.4938 219.214 65.0575C219.214 66.6212 218.163 68.5955 216.867 68.5955C215.572 68.5955 214.521 66.6314 214.521 65.0575Z" fill="#E8ECF8"/>
<path d="M217.741 66.0295L217.907 66.0116C217.907 65.9938 217.706 64.1431 216.077 64.0984V64.2732C217.557 64.314 217.74 66.0129 217.741 66.0295Z" fill="#120283"/>
<path d="M216.134 65.7667C216.411 65.4645 216.695 65.3216 216.98 65.3369C217.409 65.3624 217.698 65.7553 217.706 65.7591L217.838 65.6532C217.824 65.6341 217.501 65.1941 216.991 65.1622C216.653 65.1431 216.331 65.3038 216.018 65.6456L216.134 65.7667Z" fill="#120283"/>
<path d="M234.258 75.9562C232.519 78.062 230.32 79.4178 227.679 79.3718C225.042 79.4178 222.84 78.062 221.101 75.9562C221.091 75.9424 221.081 75.9292 221.069 75.9167C217.956 71.7677 217.319 65.7234 218.166 58.5286C219.013 51.3097 227.68 50.2549 227.68 50.2549C227.68 50.2549 236.349 51.3097 237.195 58.5286C238.041 65.7476 237.399 71.8072 234.258 75.9562Z" fill="#E8ECF8"/>
<path d="M230.73 66.4388C231.115 66.4388 231.426 66.1104 231.426 65.7054C231.426 65.3004 231.115 64.972 230.73 64.972C230.346 64.972 230.035 65.3004 230.035 65.7054C230.035 66.1104 230.346 66.4388 230.73 66.4388Z" fill="#120283"/>
<path d="M224.082 66.4388C224.466 66.4388 224.777 66.1104 224.777 65.7054C224.777 65.3004 224.466 64.972 224.082 64.972C223.698 64.972 223.386 65.3004 223.386 65.7054C223.386 66.1104 223.698 66.4388 224.082 66.4388Z" fill="#120283"/>
<path d="M234.849 60.0132C234.849 60.0132 233.376 60.054 231.439 60.0642C229.502 60.0744 229.003 60.054 229.176 59.5298C229.349 59.0056 231.291 59.0196 232.503 59.1982C233.32 59.3437 234.111 59.6184 234.849 60.0132V60.0132Z" fill="#120283"/>
<path d="M220.021 60.0132C220.021 60.0132 221.496 60.054 223.432 60.0642C225.369 60.0744 225.868 60.054 225.695 59.5298C225.522 59.0056 223.579 59.0196 222.368 59.1982C221.551 59.3435 220.76 59.6183 220.021 60.0132V60.0132Z" fill="#120283"/>
<path d="M227.301 69.7308C227.099 69.7308 226.898 69.6964 226.787 69.5867C226.749 69.5494 226.721 69.5025 226.705 69.4504C226.69 69.3983 226.687 69.3428 226.698 69.2895C226.78 68.7436 227.082 66.5728 227.085 66.5511L227.249 66.5766C227.249 66.5983 226.944 68.7691 226.861 69.3175C226.855 69.3425 226.855 69.3688 226.862 69.3937C226.868 69.4187 226.881 69.4412 226.899 69.4591C227.054 69.6109 227.591 69.5535 227.895 69.4808L227.932 69.6504C227.725 69.6997 227.513 69.7267 227.301 69.7308V69.7308Z" fill="#120283"/>
<path d="M227.828 70.3467C227.828 70.3467 229.588 70.7931 230.375 69.9002C230.375 69.9002 230.031 71.8454 227.828 70.3467Z" fill="#E8ECF8"/>
<path d="M236.578 55.3977L237.449 68.3536L237.862 61.868C237.862 61.868 239.854 57.4958 236.578 55.3977Z" fill="#120283"/>
<path d="M218.78 55.3977L218.081 67.9951L217.492 61.8731C217.492 61.8731 215.504 57.4958 218.78 55.3977Z" fill="#120283"/>
<path d="M217.908 61.8754C217.908 61.8754 222.058 59.8348 224.477 55.3975C226.897 50.9603 226.976 50.4501 229.143 55.7432C231.311 61.0362 234.794 66.967 239.737 62.2185C239.737 62.2185 238.692 54.5404 237.179 51.9219C235.667 49.3035 229.184 46.6238 227.828 46.6238C226.472 46.6238 217.608 49.0471 216.989 51.598C216.371 54.1489 217.908 61.8754 217.908 61.8754Z" fill="#120283"/>
<path d="M243.013 92.4348C239.531 95.5545 234.099 99.5454 228.232 100.541C221.63 101.663 215.902 96.1247 212.779 92.241C214.389 91.9196 215.387 91.8303 215.387 91.8303L239.741 91.7206H239.76C239.927 91.7576 241.156 91.9514 243.013 92.4348Z" fill="#E8ECF8"/>
<path d="M267.418 119.895C267.418 119.908 267.418 119.919 267.418 119.932C262.254 99.8196 244.087 92.7652 243.708 92.6223C244.57 92.8608 245.539 93.1554 246.578 93.5151L246.705 93.5585C247.378 93.7919 248.079 94.0521 248.802 94.3403C249.814 94.7446 250.867 95.2063 251.931 95.7331C252.52 96.0222 253.112 96.333 253.708 96.6654C254 96.8274 254.291 96.9958 254.583 97.168C261.522 101.279 268.128 108.273 267.418 119.895Z" fill="#120283"/>
<defs>
<linearGradient id="paint0_linear_405_14251" x1="297.204" y1="26.9986" x2="137.839" y2="89.8659" gradientUnits="userSpaceOnUse">
<stop stop-color="#E3E7F6"/>
<stop offset="1" stop-color="#E3E7F6" stop-opacity="0"/>
</linearGradient>
<linearGradient id="paint1_linear_405_14251" x1="198.013" y1="2.72109" x2="38.6485" y2="65.5884" gradientUnits="userSpaceOnUse">
<stop stop-color="#E3E7F6"/>
<stop offset="1" stop-color="#E3E7F6" stop-opacity="0"/>
</linearGradient>
<linearGradient id="paint2_linear_405_14251" x1="111.222" y1="33.5348" x2="-48.143" y2="96.4022" gradientUnits="userSpaceOnUse">
<stop stop-color="#E3E7F6"/>
<stop offset="1" stop-color="#E3E7F6" stop-opacity="0"/>
</linearGradient>
</defs>
</svg>
